<mxfile host="app.diagrams.net" agent="Mozilla/5.0 (Windows NT 10.0; Win64; x64) AppleWebKit/537.36 (KHTML, like Gecko) Chrome/133.0.0.0 Safari/537.36 Edg/133.0.0.0" version="26.0.16" pages="3">
  <diagram name="Página-1" id="NSR83SZLQa0Gk3DZyV6a">
    <mxGraphModel dx="1426" dy="781" grid="1" gridSize="10" guides="1" tooltips="1" connect="1" arrows="1" fold="1" page="1" pageScale="1" pageWidth="827" pageHeight="1169" math="0" shadow="0">
      <root>
        <mxCell id="0" />
        <mxCell id="1" parent="0" />
        <mxCell id="l2WqhKvrkdkNAEtLKfpA-7" value="Recepcionista&lt;div&gt;&lt;br&gt;&lt;/div&gt;" style="shape=umlActor;verticalLabelPosition=bottom;verticalAlign=top;html=1;" vertex="1" parent="1">
          <mxGeometry x="130" y="270" width="50" height="90" as="geometry" />
        </mxCell>
        <mxCell id="l2WqhKvrkdkNAEtLKfpA-8" value="" style="endArrow=block;endFill=1;html=1;edgeStyle=orthogonalEdgeStyle;align=left;verticalAlign=top;rounded=0;" edge="1" parent="1">
          <mxGeometry x="-1" relative="1" as="geometry">
            <mxPoint x="160" y="360" as="sourcePoint" />
            <mxPoint x="390" y="470" as="targetPoint" />
            <Array as="points">
              <mxPoint x="300" y="360" />
            </Array>
          </mxGeometry>
        </mxCell>
        <mxCell id="l2WqhKvrkdkNAEtLKfpA-11" value="" style="verticalLabelPosition=bottom;verticalAlign=top;html=1;shape=mxgraph.flowchart.on-page_reference;" vertex="1" parent="1">
          <mxGeometry x="390" y="390" width="230" height="160" as="geometry" />
        </mxCell>
        <mxCell id="l2WqhKvrkdkNAEtLKfpA-12" value="&lt;font style=&quot;font-size: 14px;&quot;&gt;gerenciar disponibilidade&lt;/font&gt;&lt;div&gt;&lt;font style=&quot;font-size: 14px;&quot;&gt;de quartos&lt;/font&gt;&lt;/div&gt;" style="text;strokeColor=none;fillColor=none;html=1;fontSize=24;fontStyle=1;verticalAlign=middle;align=center;" vertex="1" parent="1">
          <mxGeometry x="455" y="440" width="100" height="40" as="geometry" />
        </mxCell>
        <mxCell id="l2WqhKvrkdkNAEtLKfpA-18" value="" style="endArrow=classic;html=1;rounded=0;exitX=0.76;exitY=0.356;exitDx=0;exitDy=0;exitPerimeter=0;" edge="1" parent="1" source="l2WqhKvrkdkNAEtLKfpA-7">
          <mxGeometry width="50" height="50" relative="1" as="geometry">
            <mxPoint x="170" y="320" as="sourcePoint" />
            <mxPoint x="400" y="250" as="targetPoint" />
            <Array as="points">
              <mxPoint x="270" y="300" />
              <mxPoint x="270" y="250" />
            </Array>
          </mxGeometry>
        </mxCell>
        <mxCell id="l2WqhKvrkdkNAEtLKfpA-19" value="" style="ellipse;whiteSpace=wrap;html=1;" vertex="1" parent="1">
          <mxGeometry x="400" y="190" width="200" height="120" as="geometry" />
        </mxCell>
        <mxCell id="l2WqhKvrkdkNAEtLKfpA-20" value="&lt;font style=&quot;font-size: 14px;&quot;&gt;Confirmar reserva&lt;/font&gt;" style="text;strokeColor=none;fillColor=none;html=1;fontSize=24;fontStyle=1;verticalAlign=middle;align=center;" vertex="1" parent="1">
          <mxGeometry x="450" y="230" width="100" height="40" as="geometry" />
        </mxCell>
      </root>
    </mxGraphModel>
  </diagram>
  <diagram id="kto26HWdpkbc6rOBOkyl" name="Página-2">
    <mxGraphModel dx="1426" dy="781" grid="1" gridSize="10" guides="1" tooltips="1" connect="1" arrows="1" fold="1" page="1" pageScale="1" pageWidth="827" pageHeight="1169" math="0" shadow="0">
      <root>
        <mxCell id="0" />
        <mxCell id="1" parent="0" />
        <mxCell id="Gw3jl4L3y3Rf3rX3Xpzy-1" value="Cliente&lt;div&gt;&lt;br&gt;&lt;/div&gt;" style="shape=umlActor;verticalLabelPosition=bottom;verticalAlign=top;html=1;" vertex="1" parent="1">
          <mxGeometry x="130" y="270" width="50" height="90" as="geometry" />
        </mxCell>
        <mxCell id="Gw3jl4L3y3Rf3rX3Xpzy-2" value="" style="endArrow=block;endFill=1;html=1;edgeStyle=orthogonalEdgeStyle;align=left;verticalAlign=top;rounded=0;" edge="1" parent="1">
          <mxGeometry x="-1" relative="1" as="geometry">
            <mxPoint x="160" y="360" as="sourcePoint" />
            <mxPoint x="390" y="470" as="targetPoint" />
            <Array as="points">
              <mxPoint x="300" y="360" />
            </Array>
          </mxGeometry>
        </mxCell>
        <mxCell id="Gw3jl4L3y3Rf3rX3Xpzy-4" value="" style="endArrow=classic;html=1;rounded=0;exitX=0.76;exitY=0.356;exitDx=0;exitDy=0;exitPerimeter=0;" edge="1" parent="1" source="Gw3jl4L3y3Rf3rX3Xpzy-1">
          <mxGeometry width="50" height="50" relative="1" as="geometry">
            <mxPoint x="170" y="320" as="sourcePoint" />
            <mxPoint x="400" y="250" as="targetPoint" />
            <Array as="points">
              <mxPoint x="270" y="300" />
              <mxPoint x="270" y="250" />
            </Array>
          </mxGeometry>
        </mxCell>
        <mxCell id="Gw3jl4L3y3Rf3rX3Xpzy-5" value="" style="ellipse;whiteSpace=wrap;html=1;" vertex="1" parent="1">
          <mxGeometry x="400" y="190" width="200" height="120" as="geometry" />
        </mxCell>
        <mxCell id="Gw3jl4L3y3Rf3rX3Xpzy-6" value="&lt;span style=&quot;font-size: 14px;&quot;&gt;Fazer Reserva&lt;/span&gt;" style="text;strokeColor=none;fillColor=none;html=1;fontSize=24;fontStyle=1;verticalAlign=middle;align=center;" vertex="1" parent="1">
          <mxGeometry x="450" y="230" width="100" height="40" as="geometry" />
        </mxCell>
        <mxCell id="Gw3jl4L3y3Rf3rX3Xpzy-7" value="" style="ellipse;whiteSpace=wrap;html=1;" vertex="1" parent="1">
          <mxGeometry x="390" y="400" width="200" height="120" as="geometry" />
        </mxCell>
        <mxCell id="Gw3jl4L3y3Rf3rX3Xpzy-3" value="&lt;span style=&quot;font-size: 14px;&quot;&gt;Cancelar Reserva&lt;/span&gt;" style="text;strokeColor=none;fillColor=none;html=1;fontSize=24;fontStyle=1;verticalAlign=middle;align=center;" vertex="1" parent="1">
          <mxGeometry x="440" y="440" width="100" height="40" as="geometry" />
        </mxCell>
      </root>
    </mxGraphModel>
  </diagram>
  <diagram id="-45FIdvVUdtWPu6YQR61" name="Página-3">
    <mxGraphModel dx="1426" dy="781" grid="1" gridSize="10" guides="1" tooltips="1" connect="1" arrows="1" fold="1" page="1" pageScale="1" pageWidth="827" pageHeight="1169" math="0" shadow="0">
      <root>
        <mxCell id="0" />
        <mxCell id="1" parent="0" />
        <mxCell id="IDsG9wMC1qeGRdNeIjkX-1" value="&lt;div&gt;Sistema&lt;/div&gt;&lt;div&gt;&lt;br&gt;&lt;/div&gt;" style="shape=umlActor;verticalLabelPosition=bottom;verticalAlign=top;html=1;" vertex="1" parent="1">
          <mxGeometry x="760" y="510" width="50" height="90" as="geometry" />
        </mxCell>
        <mxCell id="IDsG9wMC1qeGRdNeIjkX-2" value="Cliente&lt;div&gt;&lt;br&gt;&lt;/div&gt;" style="shape=umlActor;verticalLabelPosition=bottom;verticalAlign=top;html=1;" vertex="1" parent="1">
          <mxGeometry x="110" y="250" width="50" height="90" as="geometry" />
        </mxCell>
        <mxCell id="IDsG9wMC1qeGRdNeIjkX-4" value="" style="endArrow=none;html=1;rounded=0;exitX=0.5;exitY=0;exitDx=0;exitDy=0;exitPerimeter=0;entryX=0.063;entryY=0.778;entryDx=0;entryDy=0;entryPerimeter=0;" edge="1" parent="1" source="IDsG9wMC1qeGRdNeIjkX-2" target="IDsG9wMC1qeGRdNeIjkX-5">
          <mxGeometry width="50" height="50" relative="1" as="geometry">
            <mxPoint x="140" y="240" as="sourcePoint" />
            <mxPoint x="210" y="170" as="targetPoint" />
          </mxGeometry>
        </mxCell>
        <mxCell id="IDsG9wMC1qeGRdNeIjkX-5" value="" style="ellipse;shape=doubleEllipse;whiteSpace=wrap;html=1;fillColor=#fff2cc;strokeColor=#d6b656;" vertex="1" parent="1">
          <mxGeometry x="230" y="70" width="160" height="90" as="geometry" />
        </mxCell>
        <mxCell id="IDsG9wMC1qeGRdNeIjkX-6" value="" style="endArrow=none;html=1;rounded=0;" edge="1" parent="1" target="IDsG9wMC1qeGRdNeIjkX-7">
          <mxGeometry width="50" height="50" relative="1" as="geometry">
            <mxPoint x="160" y="280" as="sourcePoint" />
            <mxPoint x="220" y="260" as="targetPoint" />
            <Array as="points" />
          </mxGeometry>
        </mxCell>
        <mxCell id="IDsG9wMC1qeGRdNeIjkX-7" value="" style="ellipse;shape=doubleEllipse;whiteSpace=wrap;html=1;fillColor=#fff2cc;strokeColor=#d6b656;" vertex="1" parent="1">
          <mxGeometry x="220" y="210" width="170" height="90" as="geometry" />
        </mxCell>
        <mxCell id="IDsG9wMC1qeGRdNeIjkX-8" value="" style="endArrow=none;html=1;rounded=0;entryX=1;entryY=1;entryDx=0;entryDy=0;entryPerimeter=0;" edge="1" parent="1" source="IDsG9wMC1qeGRdNeIjkX-9" target="IDsG9wMC1qeGRdNeIjkX-2">
          <mxGeometry width="50" height="50" relative="1" as="geometry">
            <mxPoint x="240" y="500" as="sourcePoint" />
            <mxPoint x="220" y="360" as="targetPoint" />
          </mxGeometry>
        </mxCell>
        <mxCell id="IDsG9wMC1qeGRdNeIjkX-9" value="" style="ellipse;shape=doubleEllipse;whiteSpace=wrap;html=1;fillColor=#fff2cc;strokeColor=#d6b656;" vertex="1" parent="1">
          <mxGeometry x="200" y="450" width="150" height="100" as="geometry" />
        </mxCell>
        <mxCell id="IDsG9wMC1qeGRdNeIjkX-14" value="&amp;lt;&amp;lt;extend&amp;gt;&amp;gt;" style="html=1;verticalAlign=bottom;labelBackgroundColor=none;endArrow=open;endFill=0;dashed=1;rounded=0;" edge="1" parent="1">
          <mxGeometry width="160" relative="1" as="geometry">
            <mxPoint x="280" y="450" as="sourcePoint" />
            <mxPoint x="280" y="390" as="targetPoint" />
          </mxGeometry>
        </mxCell>
        <mxCell id="IDsG9wMC1qeGRdNeIjkX-15" value="" style="ellipse;shape=doubleEllipse;whiteSpace=wrap;html=1;fillColor=#fff2cc;strokeColor=#d6b656;" vertex="1" parent="1">
          <mxGeometry x="210" y="310" width="150" height="80" as="geometry" />
        </mxCell>
        <mxCell id="IDsG9wMC1qeGRdNeIjkX-16" value="&amp;lt;&amp;lt;extend&amp;gt;&amp;gt;" style="html=1;verticalAlign=bottom;labelBackgroundColor=none;endArrow=open;endFill=0;dashed=1;rounded=0;" edge="1" parent="1">
          <mxGeometry width="160" relative="1" as="geometry">
            <mxPoint x="320" y="460" as="sourcePoint" />
            <mxPoint x="430" y="390" as="targetPoint" />
          </mxGeometry>
        </mxCell>
        <mxCell id="IDsG9wMC1qeGRdNeIjkX-17" value="" style="ellipse;shape=doubleEllipse;whiteSpace=wrap;html=1;fillColor=#fff2cc;strokeColor=#d6b656;" vertex="1" parent="1">
          <mxGeometry x="420" y="330" width="150" height="80" as="geometry" />
        </mxCell>
        <mxCell id="IDsG9wMC1qeGRdNeIjkX-18" value="&amp;lt;&amp;lt;include&amp;gt;&amp;gt;" style="html=1;verticalAlign=bottom;labelBackgroundColor=none;endArrow=open;endFill=0;dashed=1;rounded=0;" edge="1" parent="1">
          <mxGeometry width="160" relative="1" as="geometry">
            <mxPoint x="560" y="375" as="sourcePoint" />
            <mxPoint x="690" y="375" as="targetPoint" />
          </mxGeometry>
        </mxCell>
        <mxCell id="IDsG9wMC1qeGRdNeIjkX-19" value="&amp;lt;&amp;lt;include&amp;gt;&amp;gt;" style="html=1;verticalAlign=bottom;labelBackgroundColor=none;endArrow=open;endFill=0;dashed=1;rounded=0;" edge="1" parent="1">
          <mxGeometry width="160" relative="1" as="geometry">
            <mxPoint x="350" y="510" as="sourcePoint" />
            <mxPoint x="510" y="510" as="targetPoint" />
          </mxGeometry>
        </mxCell>
        <mxCell id="IDsG9wMC1qeGRdNeIjkX-20" value="" style="ellipse;shape=doubleEllipse;whiteSpace=wrap;html=1;fillColor=#fff2cc;strokeColor=#d6b656;" vertex="1" parent="1">
          <mxGeometry x="510" y="470" width="150" height="80" as="geometry" />
        </mxCell>
        <mxCell id="IDsG9wMC1qeGRdNeIjkX-21" value="navegar pelo catálogo&lt;div&gt;&lt;br&gt;&lt;/div&gt;" style="text;html=1;align=center;verticalAlign=middle;whiteSpace=wrap;rounded=0;" vertex="1" parent="1">
          <mxGeometry x="275" y="100" width="60" height="30" as="geometry" />
        </mxCell>
        <mxCell id="IDsG9wMC1qeGRdNeIjkX-22" value="colocar item no carrinho" style="text;html=1;align=center;verticalAlign=middle;whiteSpace=wrap;rounded=0;" vertex="1" parent="1">
          <mxGeometry x="280" y="240" width="60" height="30" as="geometry" />
        </mxCell>
        <mxCell id="IDsG9wMC1qeGRdNeIjkX-23" value="informar endereço" style="text;html=1;align=center;verticalAlign=middle;whiteSpace=wrap;rounded=0;" vertex="1" parent="1">
          <mxGeometry x="260" y="335" width="60" height="30" as="geometry" />
        </mxCell>
        <mxCell id="IDsG9wMC1qeGRdNeIjkX-24" value="finalizar compra" style="text;html=1;align=center;verticalAlign=middle;whiteSpace=wrap;rounded=0;" vertex="1" parent="1">
          <mxGeometry x="250" y="480" width="60" height="30" as="geometry" />
        </mxCell>
        <mxCell id="IDsG9wMC1qeGRdNeIjkX-25" value="preencher dados do cartão de crédito" style="text;html=1;align=center;verticalAlign=middle;whiteSpace=wrap;rounded=0;" vertex="1" parent="1">
          <mxGeometry x="465" y="350" width="60" height="30" as="geometry" />
        </mxCell>
        <mxCell id="IDsG9wMC1qeGRdNeIjkX-26" value="" style="ellipse;shape=doubleEllipse;whiteSpace=wrap;html=1;fillColor=#fff2cc;strokeColor=#d6b656;" vertex="1" parent="1">
          <mxGeometry x="677" y="330" width="150" height="80" as="geometry" />
        </mxCell>
        <mxCell id="IDsG9wMC1qeGRdNeIjkX-27" value="faturar compra" style="text;html=1;align=center;verticalAlign=middle;whiteSpace=wrap;rounded=0;" vertex="1" parent="1">
          <mxGeometry x="555" y="485" width="60" height="30" as="geometry" />
        </mxCell>
        <mxCell id="IDsG9wMC1qeGRdNeIjkX-28" value="verificar dados do cartão de crédito" style="text;html=1;align=center;verticalAlign=middle;whiteSpace=wrap;rounded=0;" vertex="1" parent="1">
          <mxGeometry x="720" y="360" width="60" height="30" as="geometry" />
        </mxCell>
        <mxCell id="IDsG9wMC1qeGRdNeIjkX-30" value="" style="ellipse;shape=doubleEllipse;whiteSpace=wrap;html=1;fillColor=#fff2cc;strokeColor=#d6b656;" vertex="1" parent="1">
          <mxGeometry x="510" y="620" width="150" height="80" as="geometry" />
        </mxCell>
        <mxCell id="IDsG9wMC1qeGRdNeIjkX-31" value="enviar e-mail" style="text;html=1;align=center;verticalAlign=middle;whiteSpace=wrap;rounded=0;" vertex="1" parent="1">
          <mxGeometry x="560" y="650" width="60" height="30" as="geometry" />
        </mxCell>
        <mxCell id="IDsG9wMC1qeGRdNeIjkX-32" value="" style="endArrow=none;html=1;rounded=0;" edge="1" parent="1">
          <mxGeometry width="50" height="50" relative="1" as="geometry">
            <mxPoint x="660" y="660" as="sourcePoint" />
            <mxPoint x="750" y="600" as="targetPoint" />
          </mxGeometry>
        </mxCell>
        <mxCell id="IDsG9wMC1qeGRdNeIjkX-33" value="" style="endArrow=none;html=1;rounded=0;" edge="1" parent="1" target="IDsG9wMC1qeGRdNeIjkX-1">
          <mxGeometry width="50" height="50" relative="1" as="geometry">
            <mxPoint x="660" y="510" as="sourcePoint" />
            <mxPoint x="710" y="460" as="targetPoint" />
          </mxGeometry>
        </mxCell>
        <mxCell id="IDsG9wMC1qeGRdNeIjkX-34" value="" style="endArrow=none;html=1;rounded=0;" edge="1" parent="1">
          <mxGeometry width="50" height="50" relative="1" as="geometry">
            <mxPoint x="727" y="410" as="sourcePoint" />
            <mxPoint x="770" y="490" as="targetPoint" />
          </mxGeometry>
        </mxCell>
      </root>
    </mxGraphModel>
  </diagram>
</mxfile>
